<svg width="24" height="22" viewBox="0 0 24 22" fill="none" xmlns="http://www.w3.org/2000/svg">
<g filter="url(#filter0_d_64_1631)">
<path d="M19.0802 4.30056V12.9672C19.0802 13.1588 19.0041 13.3425 18.8687 13.4779C18.7332 13.6134 18.5495 13.6895 18.358 13.6895H5.35796C5.16642 13.6895 4.98272 13.6134 4.84728 13.4779C4.71183 13.3425 4.63574 13.1588 4.63574 12.9672V3.57834H18.358C18.5495 3.57834 18.7332 3.65443 18.8687 3.78988C19.0041 3.92532 19.0802 4.10902 19.0802 4.30056ZM12.157 2.1339H4.63574V1.41168C4.63574 1.22013 4.71183 1.03643 4.84728 0.900987C4.98272 0.765544 5.16642 0.689453 5.35796 0.689453H10.7125L12.157 2.1339Z" fill="#E99287"/>
<path d="M18.5802 4.30056V12.9672C18.5802 13.0262 18.5568 13.0827 18.5151 13.1244C18.4734 13.166 18.4169 13.1895 18.358 13.1895H5.35796C5.29903 13.1895 5.2425 13.166 5.20083 13.1244C5.15916 13.0827 5.13574 13.0262 5.13574 12.9672V4.07834H18.358C18.4169 4.07834 18.4734 4.10175 18.5151 4.14343C18.5568 4.1851 18.5802 4.24163 18.5802 4.30056ZM10.5054 1.18945L10.9499 1.6339H5.13574V1.41168C5.13574 1.35274 5.15915 1.29622 5.20083 1.25454C5.2425 1.21287 5.29903 1.18945 5.35796 1.18945H10.5054Z" stroke="black"/>
</g>
<defs>
<filter id="filter0_d_64_1631" x="0.635742" y="0.689453" width="22.4443" height="21" filterUnits="userSpaceOnUse" color-interpolation-filters="sRGB">
<feFlood flood-opacity="0" result="BackgroundImageFix"/>
<feColorMatrix in="SourceAlpha" type="matrix" values="0 0 0 0 0 0 0 0 0 0 0 0 0 0 0 0 0 0 127 0" result="hardAlpha"/>
<feOffset dy="4"/>
<feGaussianBlur stdDeviation="2"/>
<feComposite in2="hardAlpha" operator="out"/>
<feColorMatrix type="matrix" values="0 0 0 0 0 0 0 0 0 0 0 0 0 0 0 0 0 0 0.25 0"/>
<feBlend mode="normal" in2="BackgroundImageFix" result="effect1_dropShadow_64_1631"/>
<feBlend mode="normal" in="SourceGraphic" in2="effect1_dropShadow_64_1631" result="shape"/>
</filter>
</defs>
</svg>
